<svg id="Layer_1" data-name="Layer 1" xmlns="http://www.w3.org/2000/svg" viewBox="0 0 1024 1024"><defs><style>.cls-1{fill:#00243d;}.cls-2{fill:#fff;}.cls-3{fill:#ec380b;}.cls-4{fill:#1dd1a1;}.cls-5{fill:#00a8ff;}.cls-6{fill:#fbc531;}</style></defs><rect class="cls-1" width="1024" height="1024"/><path class="cls-2" d="M207.08,848.81h59.11v9.25H218.06v25.29h44.88v9.35H218.06v33.82h-11Z" transform="translate(0.25 0.13)"/><path class="cls-2" d="M333.29,898.83c0,15.37-9.94,29.22-29.82,29.22-18.72,0-29.18-13.84-29.18-29.15,0-15.87,11.08-29.26,29.72-29.26C323.16,869.64,333.29,884.19,333.29,898.83ZM285,898.9c0,10.5,6.71,20.62,18.88,20.62,12.68,0,18.74-9.45,18.74-20.51s-6.69-20.85-19-20.85C291,878.16,285,887.8,285,898.9Z" transform="translate(0.25 0.13)"/><path class="cls-2" d="M401.76,898.83c0,15.37-9.95,29.22-29.83,29.22-18.72,0-29.18-13.84-29.18-29.15,0-15.87,11.09-29.26,29.73-29.26C391.62,869.64,401.76,884.19,401.76,898.83Zm-48.35.07c0,10.5,6.71,20.62,18.88,20.62C385,919.52,391,910.07,391,899s-6.69-20.85-19-20.85C359.46,878.16,353.41,887.8,353.41,898.9Z" transform="translate(0.25 0.13)"/><path class="cls-2" d="M425.76,918.33v32.45h-10.4V885c0-4.59,0-9.22-.11-13.81H425.4a94.12,94.12,0,0,1,.36,9.53c3.24-5.79,9.71-11.06,21.29-11.06,14.92,0,25.8,12.21,25.8,28.24,0,18.09-12.51,30.17-27.54,30.17C433.85,928.05,428.75,923.06,425.76,918.33Zm36.36-20c0-9.85-5.67-19.93-18.14-19.93-12.89,0-18.51,9.1-18.51,20.7s6.08,20.16,18.29,20.16S462.12,909.39,462.12,898.31Z" transform="translate(0.25 0.13)"/><path class="cls-2" d="M499.73,926.52l-24.11-77.71h11.59C493,868,504.68,905.6,506.36,915.94h.11c2.1-11,14.38-48.29,20.53-67.13h11c5.52,17.44,18.3,58.31,20,66.85h.14C560.6,904,572.66,867,578.52,848.81h11.1l-25.8,77.71h-12c-5.55-17.66-17.94-56.78-19.9-66h-.11c-2,9.91-13.84,46.14-20.28,66Z" transform="translate(0.25 0.13)"/><path class="cls-2" d="M650.24,898.83c0,15.37-9.94,29.22-29.82,29.22-18.72,0-29.18-13.84-29.18-29.15,0-15.87,11.08-29.26,29.72-29.26C640.11,869.64,650.24,884.19,650.24,898.83Zm-48.34.07c0,10.5,6.71,20.62,18.88,20.62,12.68,0,18.74-9.45,18.74-20.51s-6.69-20.85-19-20.85C608,878.16,601.9,887.8,601.9,898.9Z" transform="translate(0.25 0.13)"/><path class="cls-2" d="M663.84,886.22c0-5,0-10.06-.11-15.05h10.12c.18,1.63.4,7.45.4,12.46,3.58-8.49,11.59-14.06,22.39-14v10c-12.72-.15-22.39,7.49-22.39,23.79v23.1H663.84Z" transform="translate(0.25 0.13)"/><path class="cls-2" d="M719.38,897.65c5.87-5.31,21.91-19,30.51-26.48h13.16l-25.63,21.51,28.34,33.84H752.61L729.77,898.6l-10.39,8.29v19.63H709V844.29h10.41Z" transform="translate(0.25 0.13)"/><path class="cls-2" d="M780.9,909.76c2,6.55,7.6,10.37,17.61,10.37,10.64,0,14.39-3.71,14.39-8.65,0-4.63-2.78-7.76-16.84-9.44-19.46-2.43-23.12-9.22-23.12-16.11,0-7.15,5.71-16.29,23.42-16.29,19.16,0,24.56,9.89,25.14,16.53H811.05c-.84-3.34-3.11-8.75-15.27-8.75-10.25,0-12.42,4.42-12.42,7.58,0,4.12,2.6,6.59,15.26,8.27,20.81,2.79,24.7,9.21,24.7,17.43,0,9.94-7.58,17.35-25.46,17.35-16.13,0-25.55-6.82-27.44-18.29Z" transform="translate(0.25 0.13)"/><path class="cls-3" d="M470.07,430.17c.07,5.83-3.8,15.84-12,24.06Q372.26,540,286.36,625.71A56.3,56.3,0,0,1,206.84,546q97.87-98.38,196.1-196.45c4.2-4.22,6.21-3.62,10,.24,14.73,15.16,29.87,29.92,44.73,44.95C466.2,403.41,470,412.79,470.07,430.17Z" transform="translate(0.25 0.13)"/><path class="cls-4" d="M672.08,745.93c-14.73,0-27.89-4.78-38.28-15.13q-99-98.56-197.69-197.37c-3.76-3.75-3.58-5.8.1-9.39,14.91-14.53,29.47-29.43,44.26-44.1,18.61-18.45,43.22-18.52,62,.15Q615.35,552.72,688,625.6c8.66,8.67,17.78,16.93,25.81,26.16,15.66,18,19.24,38.52,9.8,60.66C714.76,733.22,694.92,745.85,672.08,745.93Z" transform="translate(0.25 0.13)"/><path class="cls-5" d="M348.8,103.53c18,.27,31.19,5.44,41.83,16.06q98.6,98.29,197,196.74c3.36,3.35,3.72,5.29.18,8.75-15.76,15.43-31,31.45-46.94,46.63-17.07,16.22-41.85,15.62-58.65-1.13q-85.59-85.32-170.89-170.92c-16.75-16.82-21.23-40.89-11.74-61.91C309.69,115.48,327.49,104.53,348.8,103.53Z" transform="translate(0.25 0.13)"/><path class="cls-6" d="M553.9,425.47c.08-12.1,4.18-22,12.4-30.18q85.5-85.46,171-170.89c22.24-22.09,57.31-21.5,79.27.59,21.63,21.75,22.31,56.68.52,78.63-65.2,65.68-130.79,131-196.11,196.53-3.59,3.6-5.59,4-9.34.12-14.92-15.41-30.2-30.46-45.37-45.64A40.6,40.6,0,0,1,553.9,425.47Z" transform="translate(0.25 0.13)"/><path class="cls-4" d="M460.36,659.32c-24.16,24.26-47.67,49.21-72.66,72.57-21.61,20.21-55.44,18.09-76.44-2.83s-22.94-55.21-2.89-76.47c23.48-24.9,48.39-48.44,72.68-72.57,3,.38,4.76,2.62,6.68,4.54q34.08,34,68.08,68.08C457.73,654.56,460,656.33,460.36,659.32Z" transform="translate(0.25 0.13)"/><path class="cls-6" d="M739.2,488.37c22.4,22.29,45.52,43.93,67,67.09,18.83,20.29,16.58,51.47-3.15,71.14-18.93,18.89-50.91,20.71-70.65,2.22-23.49-22-45.6-45.45-68.31-68.27,5.52-7.7,12.9-13.63,19.47-20.32q23.12-23.51,46.63-46.61C732.65,491.19,734.55,487.28,739.2,488.37Z" transform="translate(0.25 0.13)"/><path class="cls-5" d="M563.41,190.08c24-24.1,47.33-48.82,72-72.12C657,97.61,690.81,99.41,712,120.32s23.51,54.79,3.32,76.5c-23.33,25.08-48.4,48.55-72.71,72.73-2.63-.22-4.42-1.77-6.17-3.6-21.95-23.08-44.94-45.12-67.27-67.82C566.84,195.77,563.93,193.76,563.41,190.08Z" transform="translate(0.25 0.13)"/><path class="cls-3" d="M276.17,372.5c-23.87-23.7-48.36-46.82-71.43-71.28-20-21.19-18-55.9,2.65-76.57,20.89-20.87,55.18-23.05,76.53-3,25.17,23.64,48.92,48.79,73.28,73.28-7.82,9-16.67,16.93-25,25.38q-22.26,22.54-44.81,44.81C284.17,368.3,281.28,372.13,276.17,372.5Z" transform="translate(0.25 0.13)"/><path class="cls-5" d="M511.75,171.83A53,53,0,0,1,458.3,118.2c.11-29.85,23.91-53.32,53.94-53.18a53.41,53.41,0,0,1-.49,106.81Z" transform="translate(0.25 0.13)"/><path class="cls-4" d="M511.8,784.56a53.47,53.47,0,1,1,53.45-53.67A53.17,53.17,0,0,1,511.8,784.56Z" transform="translate(0.25 0.13)"/><path class="cls-3" d="M205.67,371.39a53.5,53.5,0,0,1,53.41,53.92c-.33,29.12-24.4,53.06-53.49,53.19-29.43.12-53.86-24.26-53.84-53.73A53.39,53.39,0,0,1,205.67,371.39Z" transform="translate(0.25 0.13)"/><path class="cls-6" d="M819.16,371.48c30,.72,53.48,25.14,52.56,54.61s-25.19,52.78-54.19,52.35c-29.49-.44-54.1-25.7-53-54.43C765.61,393.66,789.43,370.77,819.16,371.48Z" transform="translate(0.25 0.13)"/><path class="cls-3" d="M276.17,372.5q35.08-34.71,70.16-69.43c3.26-3.25,6.49-6.44,10.87-8.15,12.39,12.19,24.68,24.49,37.24,36.49,3.1,3,2.38,4.62-.22,7.2q-36.39,36.18-72.59,72.53c-2.37,2.38-4,4-7.17.64C301.85,398.53,289,385.57,276.17,372.5Z" transform="translate(0.25 0.13)"/><path class="cls-4" d="M460.36,659.32q-40.82-38.49-79.31-79.3c12.42-12.66,24.9-25.26,37.22-38,2.5-2.58,4.11-2.58,6.66,0q36.6,36.82,73.44,73.41c2.56,2.55,2.57,4.17,0,6.67C485.6,634.41,473,646.89,460.36,659.32Z" transform="translate(0.25 0.13)"/><path class="cls-5" d="M563.41,190.08c27,25.86,53.65,52.13,79.19,79.47-12.39,12.61-24.88,25.14-37.13,37.9-3.05,3.18-4.81,2.11-7.35-.45q-36.21-36.37-72.61-72.54c-2.81-2.79-3-4.53,0-7.33C538.22,214.89,550.78,202.45,563.41,190.08Z" transform="translate(0.25 0.13)"/><path class="cls-6" d="M739.2,488.37q-33.56,33.11-67.14,66.18c-2.36,2.33-4.21,5.48-8,6-11.36-11.17-22.63-22.45-34.16-33.45-3.19-3.05-2.38-4.82.3-7.49q33.64-33.44,67-67.09c2.54-2.56,4.13-2.88,6.76-.14C715.66,464.47,727.46,476.39,739.2,488.37Z" transform="translate(0.25 0.13)"/></svg>