<svg id="Layer_1" data-name="Layer 1" xmlns="http://www.w3.org/2000/svg" viewBox="0 0 1200 560.35"><defs><style>.cls-1{fill:none;}.cls-2{fill:#00243d;}.cls-3{fill:#ec380b;}.cls-4{fill:#1dd1a1;}.cls-5{fill:#0086ff;}.cls-6{fill:#feb607;}</style></defs><rect class="cls-1" width="1200" height="560.35"/><path class="cls-2" d="M564.22,435V207H536.71V174.79h27.51V138.12c0-31.7,11.94-61.95,53.4-61.95,6.22,0,13.34.51,17.33,1.77v33.31a60,60,0,0,0-11.71-1.06c-18.59,0-22.68,12.36-22.68,32v32.58h33.37V207H600.56V435Z" transform="translate(0 -4.32)"/><path class="cls-2" d="M787.47,248.63V357.52c0,56.47-26.67,81.61-68.5,81.61-42.19,0-67.2-24.77-67.2-80.21V247.75c0-50.1,26.45-77.05,68.74-77.05C764.29,170.7,787.47,199.23,787.47,248.63Zm-99.08-1.06V360.13c0,28.35,9.53,46.52,31.33,46.52,20.21,0,31.14-13.9,31.14-47V247.33c0-25.61-8.51-44.15-31.1-44.15C697.78,203.18,688.39,219.17,688.39,247.57Z" transform="translate(0 -4.32)"/><path class="cls-2" d="M957.19,248.63V357.52c0,56.47-26.68,81.61-68.5,81.61-42.2,0-67.2-24.77-67.2-80.21V247.75c0-50.1,26.44-77.05,68.73-77.05C934,170.7,957.19,199.23,957.19,248.63Zm-99.08-1.06V360.13c0,28.35,9.53,46.52,31.32,46.52,20.22,0,31.14-13.9,31.14-47V247.33c0-25.61-8.5-44.15-31.09-44.15C867.5,203.18,858.11,219.17,858.11,247.57Z" transform="translate(0 -4.32)"/><path class="cls-2" d="M1034,413.8V522.88H997.62v-273c0-35.5,0-58.65-.51-75.05h34.62a229.2,229.2,0,0,1,1.49,27.79c6.5-17.43,20.49-31.88,47.12-31.88,35.65,0,53,24.07,53,75.42V356.5c0,57.67-22.21,82.63-56.88,82.63C1050.55,439.13,1039.44,425.84,1034,413.8Zm62.74-56.51V247.57c0-31.47-11.38-43.6-28.16-43.6-27.15,0-34.86,22.78-34.86,56.61v85.18c0,30.26,4.28,60.1,32.53,60.1C1088.2,405.86,1096.7,388.2,1096.7,357.29Z" transform="translate(0 -4.32)"/><path class="cls-3" d="M247.62,287.83c0,3.62-2.36,9.83-7.46,14.94Q186.9,356,133.57,409.23A35,35,0,0,1,84.2,359.74C124.71,319,165.43,278.5,206,237.78c2.6-2.62,3.85-2.25,6.18.15,9.14,9.41,18.54,18.58,27.77,27.91C245.22,271.22,247.56,277,247.62,287.83Z" transform="translate(0 -4.32)"/><path class="cls-4" d="M373,483.86c-9.14,0-17.31-3-23.76-9.39q-61.45-61.19-122.73-122.53c-2.34-2.33-2.23-3.6.06-5.83,9.26-9,18.3-18.27,27.48-27.38,11.55-11.45,26.83-11.5,38.47.1q45.27,45.07,90.38,90.33c5.38,5.38,11,10.51,16,16.24,9.73,11.18,11.95,23.91,6.09,37.66C399.53,476,387.21,483.82,373,483.86Z" transform="translate(0 -4.32)"/><path class="cls-5" d="M172.34,85.05c11.17.16,19.36,3.37,26,10q61.21,61,122.33,122.14c2.09,2.09,2.31,3.29.12,5.44-9.79,9.58-19.22,19.52-29.14,28.95-10.6,10.07-26,9.69-36.42-.7q-53.13-53-106.09-106.12c-10.4-10.44-13.18-25.38-7.29-38.43C148.06,92.46,159.1,85.67,172.34,85.05Z" transform="translate(0 -4.32)"/><path class="cls-6" d="M299.66,284.91a25.51,25.51,0,0,1,7.7-18.73q53.08-53.06,106.19-106.1a34.91,34.91,0,0,1,49.53,49.19c-40.47,40.77-81.19,81.3-121.75,122-2.22,2.23-3.46,2.48-5.8.07-9.26-9.57-18.75-18.91-28.16-28.33A25.21,25.21,0,0,1,299.66,284.91Z" transform="translate(0 -4.32)"/><path class="cls-4" d="M241.59,430.09c-15,15.06-29.59,30.55-45.11,45.06-13.41,12.54-34.42,11.23-47.45-1.76s-14.24-34.27-1.79-47.48c14.57-15.45,30-30.07,45.11-45.05,1.86.24,3,1.63,4.15,2.82q21.17,21.1,42.27,42.27C240,427.14,241.35,428.23,241.59,430.09Z" transform="translate(0 -4.32)"/><path class="cls-6" d="M414.7,324c13.91,13.84,28.26,27.28,41.6,41.65,11.69,12.6,10.29,32-1.95,44.17-11.76,11.73-31.61,12.86-43.87,1.38-14.58-13.66-28.31-28.22-42.41-42.39,3.43-4.77,8-8.46,12.09-12.61q14.35-14.6,28.95-28.94C410.64,325.72,411.82,323.28,414.7,324Z" transform="translate(0 -4.32)"/><path class="cls-5" d="M305.57,138.78c14.87-15,29.38-30.31,44.72-44.77,13.4-12.64,34.37-11.52,47.52,1.46s14.59,34,2.06,47.49c-14.48,15.57-30,30.15-45.14,45.15a5.93,5.93,0,0,1-3.83-2.23c-13.62-14.33-27.9-28-41.76-42.11C307.7,142.31,305.89,141.06,305.57,138.78Z" transform="translate(0 -4.32)"/><path class="cls-3" d="M127.24,252c-14.82-14.71-30-29.07-44.34-44.25-12.42-13.16-11.2-34.71,1.64-47.54s34.26-14.31,47.51-1.87c15.63,14.68,30.37,30.29,45.5,45.5-4.85,5.56-10.35,10.5-15.53,15.75q-13.82,14-27.82,27.82C132.21,249.42,130.42,251.8,127.24,252Z" transform="translate(0 -4.32)"/><path class="cls-5" d="M273.5,127.45a33.16,33.16,0,1,1,33.2-33.28A32.93,32.93,0,0,1,273.5,127.45Z" transform="translate(0 -4.32)"/><path class="cls-4" d="M273.53,507.84a33.2,33.2,0,1,1,33.18-33.32A33,33,0,0,1,273.53,507.84Z" transform="translate(0 -4.32)"/><path class="cls-3" d="M83.47,251.34a33.21,33.21,0,0,1,33.16,33.48A33.32,33.32,0,0,1,50,284.48,33.13,33.13,0,0,1,83.47,251.34Z" transform="translate(0 -4.32)"/><path class="cls-6" d="M464.34,251.4A33.08,33.08,0,0,1,497,285.3c-.57,18.2-15.64,32.77-33.64,32.5-18.31-.27-33.6-15.95-32.94-33.79C431.1,265.16,445.89,251,464.34,251.4Z" transform="translate(0 -4.32)"/><path class="cls-3" d="M127.24,252q21.8-21.54,43.56-43.11c2-2,4-4,6.75-5,7.69,7.56,15.32,15.2,23.12,22.65,1.92,1.84,1.47,2.87-.14,4.47q-22.59,22.45-45.06,45c-1.48,1.48-2.47,2.48-4.46.39C143.19,268.19,135.18,260.14,127.24,252Z" transform="translate(0 -4.32)"/><path class="cls-4" d="M241.59,430.09q-25.34-23.89-49.24-49.23c7.72-7.86,15.46-15.68,23.12-23.59,1.55-1.61,2.55-1.61,4.13,0q22.72,22.86,45.59,45.58c1.59,1.58,1.59,2.58,0,4.13C257.26,414.63,249.44,422.38,241.59,430.09Z" transform="translate(0 -4.32)"/><path class="cls-5" d="M305.57,138.78c16.78,16.05,33.3,32.36,49.16,49.33-7.69,7.83-15.44,15.61-23.05,23.53-1.89,2-3,1.31-4.56-.27q-22.49-22.59-45.08-45c-1.75-1.73-1.85-2.81,0-4.55C289.93,154.18,297.73,146.46,305.57,138.78Z" transform="translate(0 -4.32)"/><path class="cls-6" d="M414.7,324Q393.87,344.51,373,365.05c-1.47,1.45-2.61,3.4-4.95,3.72C361,361.84,354,354.84,346.87,348c-2-1.89-1.48-3,.19-4.65q20.88-20.76,41.62-41.65c1.58-1.6,2.56-1.79,4.2-.09C400.09,309.12,407.42,316.52,414.7,324Z" transform="translate(0 -4.32)"/><path class="cls-2" d="M702.32,522.88l-15.64-50.4h7.52c3.73,12.41,11.33,36.83,12.42,43.54h.07c1.37-7.15,9.33-31.33,13.31-43.54h7.14c3.58,11.31,11.87,37.81,13,43.35h.1c1.61-7.55,9.43-31.56,13.24-43.35h7.19l-16.73,50.4h-7.8c-3.61-11.46-11.64-36.83-12.91-42.79h-.07c-1.27,6.43-9,29.93-13.15,42.79Z" transform="translate(0 -4.32)"/><path class="cls-2" d="M818.52,497.52c0,14.25-9.63,26.42-26.53,26.42-16.23,0-26.39-11.66-26.39-26.44,0-14,10.41-26.09,26.59-26.09S818.52,483.54,818.52,497.52Zm-45.38-.21c0,10.84,6.62,20.66,19.1,20.66,12.32,0,18.74-9.36,18.74-20.3,0-10.45-6.58-20.28-19.19-20.28C780,477.39,773.14,486.66,773.14,497.31Z" transform="translate(0 -4.32)"/><path class="cls-2" d="M836.92,501.16v21.72h-7.08v-50.4h24.08c10.33,0,17.24,4.73,17.24,13.67,0,6.1-3,10.41-9.21,12,3.31.93,7.88,3.44,7.88,12.26v2.22c0,3.86,0,8.1.59,10.23h-7.28c-.76-2.2-.66-6-.66-10.26v-1.68c0-7.43-2.88-9.78-11.71-9.78Zm0-5.84h15.2c7.87,0,11.73-2.75,11.73-8.75,0-5.5-3.88-8.26-11.47-8.26H836.92Z" transform="translate(0 -4.32)"/><path class="cls-2" d="M883.59,472.48h7.12V497.3c7.72-6.57,20.07-16.68,29.62-24.82h9.24l-25.63,21.59,27.15,28.81h-9.28l-23.24-24.95-7.86,6.26v18.69h-7.12Z" transform="translate(0 -4.32)"/><path class="cls-2" d="M941.1,508.22c1.83,5.9,6.15,10,16.07,10s13.7-3.84,13.7-8.53c0-5-2.77-8-15.76-10.19-15.16-2.57-18.79-7.33-18.79-14.19,0-8.87,8.42-13.93,19.39-13.93,16.4,0,20.26,8.58,20.82,13.67h-7.21c-1-3.42-3.17-8-13.79-8-7.25,0-11.92,2.48-11.92,7.53,0,4.12,2.06,6.72,13.5,8.64,18.19,3.09,21.12,8.74,21.12,15.71,0,8-6.4,14.91-21.57,14.91-14.08,0-21.2-6.42-22.83-15.7Z" transform="translate(0 -4.32)"/></svg>